<svg xmlns="http://www.w3.org/2000/svg" width="31.4" height="27.939" viewBox="0 0 31.4 27.939"><g transform="translate(-589.471 -530.429)"><g transform="translate(-176 212)"><g transform="translate(769.215 318.429)"><g transform="translate(5.994)"><path d="M822.8,334.1a7.834,7.834,0,1,1,7.834-7.834A7.843,7.843,0,0,1,822.8,334.1Zm0-14.135a6.3,6.3,0,1,0,6.3,6.3A6.308,6.308,0,0,0,822.8,319.962Z" transform="translate(-814.962 -318.429)" fill="#fff"/></g><g transform="translate(0 17.076)"><path d="M811.386,416.079a.767.767,0,0,1-.725-.519,13.041,13.041,0,0,0-24.672,0,.767.767,0,1,1-1.451-.5,14.574,14.574,0,0,1,27.573,0,.767.767,0,0,1-.725,1.015Z" transform="translate(-784.497 -405.216)" fill="#fff"/></g></g><g transform="translate(765.471 330.392)"><path d="M768.393,385.736l-2.7-2.7a.767.767,0,0,1,1.084-1.084l1.613,1.613,4.11-4.11a.767.767,0,0,1,1.084,1.084Z" transform="translate(-765.472 -379.232)" fill="#fff"/></g></g></g></svg>