<svg xmlns="http://www.w3.org/2000/svg" width="268" height="57.662" viewBox="0 0 268 57.662"><g transform="translate(-237.299 -136.213)"><g transform="translate(408.874 136.213)"><path d="M546.685,157.155a9.705,9.705,0,0,0,.353,2.854,17.212,17.212,0,0,0,1.026,2.309,1.391,1.391,0,0,1,.225.737,1.269,1.269,0,0,1-.609.962l-2.021,1.346a1.536,1.536,0,0,1-.834.289,1.472,1.472,0,0,1-.962-.449,9.94,9.94,0,0,1-1.155-1.507c-.32-.545-.641-1.154-.994-1.892a11.848,11.848,0,0,1-9.429,4.426,8.789,8.789,0,0,1-6.414-2.309,9.049,9.049,0,0,1,.545-12.764,11.669,11.669,0,0,1,7.857-2.5,25.331,25.331,0,0,1,3.4.257c1.187.16,2.405.417,3.689.705v-2.341c0-2.437-.513-4.137-1.507-5.131-1.026-.994-2.759-1.475-5.228-1.475a14.6,14.6,0,0,0-3.463.417,25.589,25.589,0,0,0-3.464,1.091,9.1,9.1,0,0,1-1.122.417,1.956,1.956,0,0,1-.513.1c-.449,0-.674-.321-.674-.994v-1.572a2.031,2.031,0,0,1,.224-1.123,2.4,2.4,0,0,1,.9-.674,18.451,18.451,0,0,1,4.041-1.443,19.437,19.437,0,0,1,5-.61c3.816,0,6.607.866,8.4,2.6,1.764,1.732,2.662,4.361,2.662,7.889v10.391Zm-13.021,4.874a10.38,10.38,0,0,0,3.3-.577,7.144,7.144,0,0,0,3.047-2.053,5.086,5.086,0,0,0,1.09-2.053,11.5,11.5,0,0,0,.321-2.79V153.21a26.9,26.9,0,0,0-2.951-.545,24.173,24.173,0,0,0-3.014-.192,7.393,7.393,0,0,0-4.779,1.283,4.582,4.582,0,0,0,2.982,8.274Zm25.752,3.464a1.789,1.789,0,0,1-1.218-.321,2.619,2.619,0,0,1-.674-1.251l-7.537-24.79a5.6,5.6,0,0,1-.288-1.283.7.7,0,0,1,.769-.8h3.143a1.778,1.778,0,0,1,1.251.321,2.618,2.618,0,0,1,.641,1.251l5.388,21.23,5-21.23a2.251,2.251,0,0,1,.609-1.251,2.207,2.207,0,0,1,1.283-.321h2.565a1.93,1.93,0,0,1,1.283.321,2.159,2.159,0,0,1,.61,1.251l5.067,21.486,5.548-21.486a2.748,2.748,0,0,1,.642-1.251,2.091,2.091,0,0,1,1.251-.321h2.982a.713.713,0,0,1,.8.8,3.15,3.15,0,0,1-.064.513,4.5,4.5,0,0,1-.225.8l-7.729,24.79a2.461,2.461,0,0,1-.674,1.251,2.05,2.05,0,0,1-1.219.321h-2.758a1.929,1.929,0,0,1-1.283-.321,2.275,2.275,0,0,1-.609-1.283l-4.971-20.685-4.939,20.653a2.5,2.5,0,0,1-.609,1.283,1.987,1.987,0,0,1-1.283.321Zm41.21.866a21.231,21.231,0,0,1-4.939-.577A14.6,14.6,0,0,1,592,164.5a2.31,2.31,0,0,1-.994-.9,2.252,2.252,0,0,1-.193-.9v-1.635c0-.674.256-.994.737-.994a1.806,1.806,0,0,1,.577.1c.193.064.482.193.8.321a17.486,17.486,0,0,0,3.528,1.123,19.27,19.27,0,0,0,3.817.385,8.656,8.656,0,0,0,4.682-1.058,3.454,3.454,0,0,0,1.667-3.047,3.122,3.122,0,0,0-.865-2.245,8.043,8.043,0,0,0-3.24-1.668l-4.65-1.443a9.78,9.78,0,0,1-5.131-3.271,7.639,7.639,0,0,1-1.6-4.65,7.137,7.137,0,0,1,.866-3.56,8.247,8.247,0,0,1,2.309-2.63,10.193,10.193,0,0,1,3.336-1.668,13.984,13.984,0,0,1,4.041-.545,16.085,16.085,0,0,1,2.149.128c.737.1,1.411.225,2.084.353.642.16,1.251.321,1.828.513a7.044,7.044,0,0,1,1.347.577,2.783,2.783,0,0,1,.962.8,1.73,1.73,0,0,1,.289,1.059v1.507c0,.674-.257,1.026-.738,1.026a3.326,3.326,0,0,1-1.218-.385,14.674,14.674,0,0,0-6.158-1.251,8.282,8.282,0,0,0-4.266.9,3.1,3.1,0,0,0-1.507,2.854,3.027,3.027,0,0,0,.962,2.277,9.572,9.572,0,0,0,3.528,1.764l4.553,1.443a9.758,9.758,0,0,1,4.971,3.079,7.261,7.261,0,0,1,1.475,4.49,8.245,8.245,0,0,1-.834,3.72,8.626,8.626,0,0,1-2.341,2.822,10.332,10.332,0,0,1-3.56,1.8A15.25,15.25,0,0,1,600.627,166.359Z" transform="translate(-519.512 -136.213)" fill="#252f3e"/><path d="M604.176,204.6c-10.552,7.793-25.881,11.93-39.062,11.93a70.668,70.668,0,0,1-47.688-18.184c-.994-.9-.1-2.117,1.091-1.411a94.712,94.712,0,0,0,84.12,5.228C604.4,201.359,605.908,203.316,604.176,204.6Zm4.393-5c-1.347-1.732-8.916-.834-12.347-.417-1.026.128-1.186-.77-.256-1.443,6.029-4.233,15.939-3.014,17.093-1.6,1.154,1.443-.32,11.353-5.965,16.1-.866.738-1.7.353-1.315-.609C607.062,208.447,609.916,201.3,608.569,199.6Z" transform="translate(-516.999 -158.867)" fill="#f90"/></g><g transform="translate(237.299 140.669)"><path d="M237.3,175.14V153.122h2.458v2.068a6.054,6.054,0,0,1,1.964-1.821,5.392,5.392,0,0,1,2.653-.607,6.291,6.291,0,0,1,3.6,1.05,6.444,6.444,0,0,1,2.354,2.96,10.826,10.826,0,0,1,.794,4.19,10.642,10.642,0,0,1-.877,4.4,6.614,6.614,0,0,1-2.548,3,6.547,6.547,0,0,1-3.515,1.042,5.076,5.076,0,0,1-2.421-.57A5.5,5.5,0,0,1,240,167.391v7.749Zm2.443-13.97a6.925,6.925,0,0,0,1.243,4.542A3.815,3.815,0,0,0,244,167.182a3.9,3.9,0,0,0,3.08-1.522,7.216,7.216,0,0,0,1.281-4.714,7.036,7.036,0,0,0-1.251-4.557,3.768,3.768,0,0,0-2.99-1.513,3.885,3.885,0,0,0-3.05,1.611A7.208,7.208,0,0,0,239.742,161.171Z" transform="translate(-237.299 -147.066)" fill="#252f3e"/><path d="M263.492,161.081q0-4.421,2.459-6.55a7.406,7.406,0,0,1,5.006-1.769,7.141,7.141,0,0,1,5.366,2.151,8.181,8.181,0,0,1,2.084,5.943,10.529,10.529,0,0,1-.922,4.834,6.518,6.518,0,0,1-2.683,2.735,7.814,7.814,0,0,1-3.845.975,7.156,7.156,0,0,1-5.4-2.143A8.561,8.561,0,0,1,263.492,161.081Zm2.773,0a6.779,6.779,0,0,0,1.334,4.579,4.441,4.441,0,0,0,6.7-.007,6.942,6.942,0,0,0,1.334-4.661,6.578,6.578,0,0,0-1.342-4.474,4.447,4.447,0,0,0-6.692-.007A6.749,6.749,0,0,0,266.265,161.081Z" transform="translate(-247.425 -147.066)" fill="#252f3e"/><path d="M294.68,169.267l-4.871-15.918H292.6l2.533,9.188.945,3.417q.06-.254.824-3.282l2.533-9.323H302.2l2.384,9.233.794,3.043.914-3.073,2.729-9.2h2.622l-4.976,15.918h-2.8l-2.533-9.533-.615-2.713L297.5,169.267Z" transform="translate(-257.598 -147.293)" fill="#252f3e"/><path d="M339.43,163.913l2.787.345a6.8,6.8,0,0,1-2.443,3.793,8.277,8.277,0,0,1-10.1-.8,8.4,8.4,0,0,1-2.046-6.033,8.8,8.8,0,0,1,2.068-6.235,7,7,0,0,1,5.366-2.218,6.807,6.807,0,0,1,5.217,2.173,8.636,8.636,0,0,1,2.023,6.115q0,.24-.015.72H330.422a6.117,6.117,0,0,0,1.483,4.017,4.417,4.417,0,0,0,3.328,1.394,4.13,4.13,0,0,0,2.533-.78A5.174,5.174,0,0,0,339.43,163.913Zm-8.858-4.361h8.889a5.394,5.394,0,0,0-1.02-3.013,4.136,4.136,0,0,0-3.343-1.559,4.288,4.288,0,0,0-3.125,1.245A4.926,4.926,0,0,0,330.572,159.552Z" transform="translate(-272.22 -147.066)" fill="#252f3e"/><path d="M356.883,169.04V153.122h2.428v2.413a6.584,6.584,0,0,1,1.716-2.233,3,3,0,0,1,1.732-.54,5.266,5.266,0,0,1,2.773.869l-.929,2.5a3.862,3.862,0,0,0-1.978-.585,2.573,2.573,0,0,0-1.589.532,2.884,2.884,0,0,0-1,1.477,10.5,10.5,0,0,0-.45,3.147v8.334Z" transform="translate(-283.527 -147.066)" fill="#252f3e"/><path d="M383.926,163.913l2.787.345a6.8,6.8,0,0,1-2.443,3.793,8.277,8.277,0,0,1-10.1-.8,8.4,8.4,0,0,1-2.046-6.033,8.8,8.8,0,0,1,2.068-6.235,7,7,0,0,1,5.366-2.218,6.8,6.8,0,0,1,5.216,2.173,8.637,8.637,0,0,1,2.024,6.115c0,.16-.006.4-.015.72H374.917a6.117,6.117,0,0,0,1.484,4.017,4.417,4.417,0,0,0,3.328,1.394,4.128,4.128,0,0,0,2.533-.78A5.179,5.179,0,0,0,383.926,163.913Zm-8.859-4.361h8.889a5.39,5.39,0,0,0-1.019-3.013,4.136,4.136,0,0,0-3.343-1.559,4.287,4.287,0,0,0-3.125,1.245A4.923,4.923,0,0,0,375.067,159.552Z" transform="translate(-289.421 -147.066)" fill="#252f3e"/><path d="M411.14,165.45v-2.008a4.951,4.951,0,0,1-4.452,2.368,6.241,6.241,0,0,1-3.5-1.05,6.9,6.9,0,0,1-2.473-2.93,10.126,10.126,0,0,1-.877-4.324,11.314,11.314,0,0,1,.794-4.325,6.264,6.264,0,0,1,2.383-2.975,6.371,6.371,0,0,1,3.552-1.034,5.306,5.306,0,0,1,2.563.607,5.361,5.361,0,0,1,1.829,1.581v-7.884h2.683V165.45Zm-8.528-7.944a6.912,6.912,0,0,0,1.289,4.571,3.887,3.887,0,0,0,3.043,1.515,3.816,3.816,0,0,0,3.005-1.446,6.67,6.67,0,0,0,1.237-4.415,7.482,7.482,0,0,0-1.259-4.8,3.872,3.872,0,0,0-3.1-1.529,3.738,3.738,0,0,0-3.005,1.469A7.25,7.25,0,0,0,402.612,157.507Z" transform="translate(-300.133 -143.477)" fill="#252f3e"/><path d="M445.64,165.45h-2.5V143.477h2.7v7.839a5.339,5.339,0,0,1,4.362-2.143,6.679,6.679,0,0,1,2.781.593,5.686,5.686,0,0,1,2.158,1.663,8.043,8.043,0,0,1,1.326,2.586,10.646,10.646,0,0,1,.48,3.238,9.092,9.092,0,0,1-2.023,6.325,6.33,6.33,0,0,1-4.856,2.233,5.067,5.067,0,0,1-4.422-2.354Zm-.03-8.079a8.261,8.261,0,0,0,.779,4.137,3.856,3.856,0,0,0,6.505.547,6.981,6.981,0,0,0,1.289-4.579,7.1,7.1,0,0,0-1.237-4.6,3.767,3.767,0,0,0-2.99-1.484,3.88,3.88,0,0,0-3.058,1.537A6.745,6.745,0,0,0,445.61,157.372Z" transform="translate(-316.871 -143.477)" fill="#252f3e"/><path d="M469.909,175.4l-.3-2.533a6.029,6.029,0,0,0,1.544.24,2.961,2.961,0,0,0,1.439-.3,2.451,2.451,0,0,0,.884-.839,13.24,13.24,0,0,0,.824-2.009q.075-.225.24-.659l-6.04-15.948h2.908l3.312,9.218q.645,1.754,1.154,3.687a36.368,36.368,0,0,1,1.109-3.627l3.4-9.278h2.7l-6.055,16.188a31.682,31.682,0,0,1-1.515,3.612,5.322,5.322,0,0,1-1.648,1.956,3.9,3.9,0,0,1-2.219.622A5.408,5.408,0,0,1,469.909,175.4Z" transform="translate(-326.676 -147.293)" fill="#252f3e"/></g></g></svg>