<svg xmlns="http://www.w3.org/2000/svg" width="84.748" height="84.748" viewBox="0 0 84.748 84.748"><path d="M-34.1,19.563A42.375,42.375,0,0,0-76.474,61.938h0A42.375,42.375,0,0,0-34.1,104.311,42.373,42.373,0,0,0,8.274,61.938h0A42.373,42.373,0,0,0-34.1,19.563Zm13.654,51.945c-.57,1.623-3.42,3.18-4.7,3.289s-1.278,1.038-8.374-1.719c-7.081-2.781-11.554-10-11.9-10.45a15.741,15.741,0,0,1-2.489-4.792,8.854,8.854,0,0,1-.358-2.358A7.751,7.751,0,0,1-45.831,49.7a2.584,2.584,0,0,1,1.864-.864c.465,0,.931.067,1.332.067s1-.24,1.57,1.144,1.984,4.792,2.158,5.139a1.25,1.25,0,0,1,.053,1.211,7.684,7.684,0,0,1-.441.824c-.08.107-.158.214-.252.334-.358.4-.733.893-1.051,1.211-.347.345-.706.719-.307,1.412a20.623,20.623,0,0,0,3.874,4.778,18.9,18.9,0,0,0,5.6,3.436c.706.345,1.1.292,1.516-.174s1.746-2.011,2.211-2.7.931-.586,1.57-.345c.639.225,4.061,1.9,4.767,2.249.69.347,1.158.519,1.332.8A5.71,5.71,0,0,1-20.445,71.508Z" transform="translate(76.474 -19.563)" fill="#00adee" fill-rule="evenodd"/></svg>