<svg xmlns="http://www.w3.org/2000/svg" width="31.502" height="31.5" viewBox="0 0 31.502 31.5"><g transform="translate(-757.137 -325.428)"><g transform="translate(765.837 334.124)"><path d="M803.408,378.735a7.053,7.053,0,1,1,7.053-7.052A7.06,7.06,0,0,1,803.408,378.735Zm0-12.576a5.524,5.524,0,1,0,5.524,5.524A5.53,5.53,0,0,0,803.408,366.159Z" transform="translate(-796.355 -364.63)" fill="#fff"/></g><g transform="translate(757.137 325.428)"><path d="M771.66,356.928a2.579,2.579,0,0,1-2.578-2.573.565.565,0,0,0-.4-.529,13.3,13.3,0,0,1-1.712-.705.567.567,0,0,0-.656.1,2.582,2.582,0,0,1-3.647.01l-1.779-1.77a2.582,2.582,0,0,1-.009-3.647.565.565,0,0,0,.093-.654,13.252,13.252,0,0,1-.716-1.713.563.563,0,0,0-.528-.392h-.009a2.581,2.581,0,0,1-2.578-2.571l-.008-2.51a2.582,2.582,0,0,1,2.571-2.586.565.565,0,0,0,.528-.4,13.268,13.268,0,0,1,.7-1.713.567.567,0,0,0-.1-.656,2.582,2.582,0,0,1-.013-3.647l1.769-1.781a2.582,2.582,0,0,1,3.646-.013.564.564,0,0,0,.654.092,13.288,13.288,0,0,1,1.763-.734.564.564,0,0,0,.394-.528,2.582,2.582,0,0,1,2.579-2.579h2.51a2.581,2.581,0,0,1,2.579,2.579.565.565,0,0,0,.4.529,13.275,13.275,0,0,1,1.712.71.565.565,0,0,0,.656-.095,2.581,2.581,0,0,1,3.646,0l1.776,1.774a2.578,2.578,0,0,1,0,3.647.565.565,0,0,0-.093.655,13.324,13.324,0,0,1,.711,1.712.564.564,0,0,0,.529.395h0a2.578,2.578,0,0,1,2.578,2.576l0,2.51A2.581,2.581,0,0,1,786.064,345a.564.564,0,0,0-.529.4,13.29,13.29,0,0,1-.707,1.712.567.567,0,0,0,.1.656,2.582,2.582,0,0,1,.005,3.647l-1.772,1.777a2.561,2.561,0,0,1-1.822.758h0a2.561,2.561,0,0,1-1.82-.753.566.566,0,0,0-.655-.093,13.226,13.226,0,0,1-1.713.713.563.563,0,0,0-.393.529,2.579,2.579,0,0,1-2.573,2.584l-2.51,0Zm-4.953-5.4a2.131,2.131,0,0,1,.946.223,11.7,11.7,0,0,0,1.515.624,2.093,2.093,0,0,1,1.443,1.977,1.049,1.049,0,0,0,1.049,1.047h0l2.51,0a1.05,1.05,0,0,0,1.047-1.052,2.09,2.09,0,0,1,1.435-1.981,11.691,11.691,0,0,0,1.514-.631,2.091,2.091,0,0,1,2.42.377,1.041,1.041,0,0,0,.741.306h0a1.042,1.042,0,0,0,.742-.309l1.772-1.777a1.051,1.051,0,0,0,0-1.484,2.093,2.093,0,0,1-.384-2.42,11.766,11.766,0,0,0,.626-1.514,2.091,2.091,0,0,1,1.978-1.441,1.051,1.051,0,0,0,1.048-1.051l0-2.51a1.043,1.043,0,0,0-.308-.742,1.054,1.054,0,0,0-.742-.307h0a2.091,2.091,0,0,1-1.978-1.437,11.767,11.767,0,0,0-.629-1.514,2.092,2.092,0,0,1,.379-2.419,1.05,1.05,0,0,0,0-1.484l-1.776-1.774a1.051,1.051,0,0,0-1.484,0,2.091,2.091,0,0,1-2.42.382,11.784,11.784,0,0,0-1.514-.628,2.091,2.091,0,0,1-1.439-1.979,1.051,1.051,0,0,0-1.049-1.049h-2.51a1.051,1.051,0,0,0-1.05,1.049,2.091,2.091,0,0,1-1.439,1.979,11.768,11.768,0,0,0-1.56.649,2.091,2.091,0,0,1-2.419-.372,1.051,1.051,0,0,0-1.484.005l-1.768,1.781a1.051,1.051,0,0,0,.006,1.484,2.093,2.093,0,0,1,.39,2.419,11.82,11.82,0,0,0-.623,1.516,2.091,2.091,0,0,1-1.975,1.446,1.051,1.051,0,0,0-1.046,1.053l.007,2.51a1.051,1.051,0,0,0,1.05,1.046h.009a2.091,2.091,0,0,1,1.976,1.432,11.744,11.744,0,0,0,.633,1.515,2.091,2.091,0,0,1-.375,2.42,1.051,1.051,0,0,0,0,1.484l1.779,1.77a1.05,1.05,0,0,0,1.484,0A2.074,2.074,0,0,1,766.707,351.528Z" transform="translate(-757.137 -325.428)" fill="#fff"/></g></g></svg>