<svg xmlns="http://www.w3.org/2000/svg" width="84.748" height="84.748" viewBox="0 0 84.748 84.748"><path d="M-86.1,19.563a42.375,42.375,0,0,0-42.375,42.375h0A42.375,42.375,0,0,0-86.1,104.311,42.373,42.373,0,0,0-43.726,61.938h0A42.373,42.373,0,0,0-86.1,19.563Zm-22.58,31.084c0-8.292,5.645-11.289,11.285-11.289h11.3c5.645,0,11.285,3.5,11.285,11.289v5.645A11.286,11.286,0,0,1-86.1,67.583a5.649,5.649,0,0,0-5.645-5.645h-5.651C-103.035,61.938-108.679,58.763-108.679,50.647Zm33.865,28.225h-5.64A5.645,5.645,0,0,0-86.1,84.518a11.3,11.3,0,0,1-11.3-11.291V67.583a14.217,14.217,0,0,1,.285-2.823h5.366a2.825,2.825,0,0,1,2.821,2.823v2.823H-86.1A14.118,14.118,0,0,0-72.015,56.592c4.567.886,8.5,4.086,8.5,10.991C-63.518,75.7-69.163,78.872-74.814,78.872Z" transform="translate(128.474 -19.563)" fill="#00adee"/></svg>