<svg xmlns="http://www.w3.org/2000/svg" width="224.863" height="74.667" viewBox="0 0 224.863 74.667"><g transform="translate(-129.837 -230.432)"><g transform="translate(243.028 230.432)"><path d="M441.581,295.519l.617-1.611c1.749-4.565,6.744-8.307,11.378-8.521l8.536-.493a1.027,1.027,0,0,0,.893-.684.78.78,0,0,0-.086-.7.746.746,0,0,0-.586-.318l-8.215-.493a5.942,5.942,0,0,1-4.715-2.331,6.693,6.693,0,0,1-.684-5.854l1.515-5.233a.615.615,0,0,1,.388-.409l-.019-.011-2.21-.969a1.338,1.338,0,0,1-.087.492l-2.218,5.8c-1.749,4.565-6.744,8.309-11.357,8.52l-38.892.493a1.026,1.026,0,0,0-.9.684.783.783,0,0,0,.083.7.762.762,0,0,0,.607.323l38.535.491a5.947,5.947,0,0,1,4.715,2.332,6.7,6.7,0,0,1,.684,5.855l-.547,1.89a.937.937,0,0,1-.88.672h3.846A.456.456,0,0,1,441.581,295.519Z" transform="translate(-366.064 -247.82)" fill="#fff"/><path d="M414.041,278.076l.547-1.89a6.7,6.7,0,0,0-.684-5.855A5.947,5.947,0,0,0,409.189,268l-38.535-.491a.762.762,0,0,1-.607-.323.783.783,0,0,1-.083-.7,1.026,1.026,0,0,1,.9-.684l38.892-.493c4.613-.211,9.608-3.955,11.357-8.52l2.218-5.8a1.336,1.336,0,0,0,.087-.492,1.313,1.313,0,0,0-.027-.274,25.33,25.33,0,0,0-48.7-2.619,11.4,11.4,0,0,0-17.874,11.945,16.193,16.193,0,0,0-15.556,18.537.754.754,0,0,0,.743.649l71.142.009c.007,0,.013,0,.02,0A.937.937,0,0,0,414.041,278.076Z" transform="translate(-341.085 -230.432)" fill="#f48120"/><path d="M492.271,269.6c-.357,0-.713.01-1.067.027a.605.605,0,0,0-.167.036.615.615,0,0,0-.388.409l-1.515,5.233a6.693,6.693,0,0,0,.684,5.854,5.942,5.942,0,0,0,4.715,2.331l8.215.494a.746.746,0,0,1,.586.318.78.78,0,0,1,.086.7,1.027,1.027,0,0,1-.893.684l-8.536.493c-4.634.213-9.629,3.955-11.378,8.521L482,296.313a.456.456,0,0,0,.405.618l.022,0h29.37a.783.783,0,0,0,.758-.565A21.078,21.078,0,0,0,492.271,269.6Z" transform="translate(-406.478 -248.614)" fill="#faad3f"/></g><path d="M544.309,340.528a1.9,1.9,0,1,1,1.9-1.9,1.9,1.9,0,0,1-1.9,1.9m0-3.442a1.546,1.546,0,1,0,1.521,1.543,1.534,1.534,0,0,0-1.521-1.543m.959,2.545h-.45l-.378-.728h-.509v.723h-.393v-2.088h1a.682.682,0,0,1,.283,1.316Zm-.723-1.091a.3.3,0,0,0,.325-.319c0-.237-.125-.32-.325-.32h-.613v.639Z" transform="translate(-191.507 -49.344)" fill="#404242"/><path d="M174.9,336.373h4.864v13.288h8.5v4.261H174.9Z" transform="translate(-20.916 -49.176)" fill="#404242"/><path d="M209.239,344.893v-.05a9.458,9.458,0,0,1,18.9-.05v.05a9.458,9.458,0,0,1-18.9.05m13.939,0v-.05a4.56,4.56,0,0,0-4.512-4.738,4.473,4.473,0,0,0-4.438,4.688v.05a4.556,4.556,0,0,0,4.488,4.739,4.477,4.477,0,0,0,4.462-4.689" transform="translate(-36.857 -48.871)" fill="#404242"/><path d="M255.628,346.226v-9.854h4.94v9.754c0,2.532,1.278,3.735,3.233,3.735s3.234-1.153,3.234-3.61v-9.879h4.94V346.1c0,5.666-3.234,8.147-8.223,8.147s-8.123-2.531-8.123-8.022" transform="translate(-58.39 -49.175)" fill="#404242"/><path d="M300.027,336.375h6.77c6.268,0,9.9,3.61,9.9,8.673v.051c0,5.064-3.685,8.824-10,8.824h-6.67Zm6.845,13.236c2.909,0,4.838-1.6,4.838-4.438v-.05c0-2.808-1.93-4.438-4.838-4.438h-1.981v8.926Z" transform="translate(-78.999 -49.177)" fill="#404242"/><path d="M344.336,336.373h14.039v4.263H349.2v2.983h8.3v4.036h-8.3v6.268h-4.864Z" transform="translate(-99.566 -49.176)" fill="#404242"/><path d="M383.168,336.373h4.864v13.288h8.5v4.261H383.168Z" transform="translate(-117.591 -49.176)" fill="#404242"/><path d="M425.356,336.139h4.687l7.472,17.675H432.3l-1.28-3.133h-6.77L423,353.814h-5.115Zm4.261,10.756-1.955-4.99-1.981,4.99Z" transform="translate(-133.705 -49.067)" fill="#404242"/><path d="M466.214,336.373h8.3c2.683,0,4.537.7,5.716,1.905a5.437,5.437,0,0,1,1.555,4.087v.05a5.551,5.551,0,0,1-3.61,5.39l4.187,6.119h-5.616l-3.534-5.316h-2.132v5.316h-4.864Zm8.074,8.424c1.655,0,2.608-.8,2.608-2.081v-.05c0-1.38-1-2.081-2.634-2.081h-3.184V344.8Z" transform="translate(-156.139 -49.176)" fill="#404242"/><path d="M508.37,336.373h14.115v4.137h-9.3v2.656h8.424V347h-8.424v2.783h9.426v4.136H508.37Z" transform="translate(-175.707 -49.176)" fill="#404242"/><path d="M143.332,346.952a4.3,4.3,0,0,1-4.019,2.631,4.556,4.556,0,0,1-4.488-4.739v-.05a4.473,4.473,0,0,1,4.438-4.689,4.408,4.408,0,0,1,4.173,2.909h5.127a9.5,9.5,0,0,0-18.726,1.83v.05a9.109,9.109,0,0,0,9.426,9.077,9.247,9.247,0,0,0,9.208-7.019Z" transform="translate(0 -48.872)" fill="#404242"/></g></svg>