<svg xmlns="http://www.w3.org/2000/svg" width="84.748" height="84.748" viewBox="0 0 84.748 84.748"><path d="M-88.637,63.435A42.373,42.373,0,0,0-131.01,105.81h0a42.373,42.373,0,0,0,42.373,42.373A42.373,42.373,0,0,0-46.262,105.81h0A42.374,42.374,0,0,0-88.637,63.435ZM-107.851,91h38.43a3.617,3.617,0,0,1,3.543,2.93l-22.758,12.683L-111.4,93.931A3.622,3.622,0,0,1-107.851,91Zm42.032,26.014a3.606,3.606,0,0,1-3.6,3.6h-38.43a3.616,3.616,0,0,1-3.6-3.6V96.645l22.231,12.393a1.268,1.268,0,0,0,.588.158,1.15,1.15,0,0,0,.59-.158l22.229-12.393Z" transform="translate(131.01 -63.435)" fill="#00adee"/></svg>