<svg xmlns="http://www.w3.org/2000/svg" width="45.725" height="45.725" viewBox="0 0 45.725 45.725"><path d="M169.254,128.505h0a22.862,22.862,0,0,0-22.863,22.863h0a22.862,22.862,0,0,0,22.863,22.862h0a22.862,22.862,0,0,0,22.862-22.862h0A22.862,22.862,0,0,0,169.254,128.505Zm6.378,13.886H172.62c-1.064,0-1.285.435-1.285,1.535v2.657h4.3l-.413,4.666h-3.884v13.937H165.77V151.309h-2.9v-4.725h2.9v-3.721c0-3.491,1.867-5.315,6.008-5.315h3.854Z" transform="translate(-146.391 -128.505)" fill="#dedede"/></svg>