<svg xmlns="http://www.w3.org/2000/svg" width="45.725" height="45.725" viewBox="0 0 45.725 45.725"><path d="M232.65,141.865a4.143,4.143,0,0,0-2.379-2.379,6.946,6.946,0,0,0-2.327-.432c-1.323-.06-1.719-.073-5.066-.073s-3.743.013-5.065.073a6.955,6.955,0,0,0-2.328.432,4.152,4.152,0,0,0-2.379,2.379,6.922,6.922,0,0,0-.431,2.327c-.06,1.323-.073,1.719-.073,5.066s.013,3.743.073,5.065a6.924,6.924,0,0,0,.431,2.328,4.152,4.152,0,0,0,2.379,2.379,6.931,6.931,0,0,0,2.328.431c1.322.06,1.718.073,5.065.073s3.743-.013,5.066-.073a6.922,6.922,0,0,0,2.327-.431,4.143,4.143,0,0,0,2.379-2.379,6.947,6.947,0,0,0,.432-2.328c.06-1.321.073-1.718.073-5.065s-.013-3.743-.073-5.066A6.944,6.944,0,0,0,232.65,141.865Zm-9.772,13.83a6.437,6.437,0,1,1,6.437-6.437A6.437,6.437,0,0,1,222.878,155.7Zm6.692-11.624a1.5,1.5,0,1,1,1.5-1.5A1.5,1.5,0,0,1,229.57,144.071Z" transform="translate(-200.017 -126.396)" fill="#c62e90"/><path d="M221.856,144.058a4.178,4.178,0,1,0,4.178,4.178A4.178,4.178,0,0,0,221.856,144.058Z" transform="translate(-198.995 -125.373)" fill="#c62e90"/><path d="M224.988,128.505a22.862,22.862,0,0,0-22.862,22.863h0a22.862,22.862,0,0,0,45.725,0h0A22.862,22.862,0,0,0,224.988,128.505Zm12.46,28.031a9.209,9.209,0,0,1-.583,3.043,6.417,6.417,0,0,1-3.667,3.667,9.241,9.241,0,0,1-3.043.583c-1.337.06-1.764.074-5.168.074s-3.831-.014-5.168-.074a9.248,9.248,0,0,1-3.043-.583,6.411,6.411,0,0,1-3.665-3.667,9.178,9.178,0,0,1-.583-3.043c-.061-1.337-.076-1.764-.076-5.168s.014-3.831.076-5.168a9.178,9.178,0,0,1,.583-3.043,6.41,6.41,0,0,1,3.665-3.667,9.216,9.216,0,0,1,3.043-.583c1.337-.06,1.764-.076,5.168-.076s3.831.016,5.168.076a9.209,9.209,0,0,1,3.043.583,6.417,6.417,0,0,1,3.667,3.667,9.209,9.209,0,0,1,.583,3.043c.061,1.337.076,1.764.076,5.168S237.51,155.2,237.448,156.536Z" transform="translate(-202.126 -128.505)" fill="#c62e90"/></svg>