<svg xmlns="http://www.w3.org/2000/svg" width="84.748" height="84.748" viewBox="0 0 84.748 84.748"><path d="M-55.059,81.556l1.857,1.857.75-.753L-54.308,80.8Z" transform="translate(102.743 -50.877)" fill="#00adee"/><rect width="1.062" height="2.627" transform="matrix(0.707, -0.708, 0.708, 0.707, 55.113, 38.11)" fill="#00adee"/><rect width="1.062" height="2.627" transform="translate(51.398 34.393) rotate(-45)" fill="#00adee"/><path d="M-34.1,67.363a42.375,42.375,0,0,0-42.375,42.375h0A42.375,42.375,0,0,0-34.1,152.111,42.373,42.373,0,0,0,8.274,109.738h0A42.373,42.373,0,0,0-34.1,67.363Zm-7.833,62.731-3.193-3.2c1.245-1.247.88-3.625-.813-5.319s-4.075-2.06-5.322-.81l-3.193-3.2,22.591-22.6,1.211,1.211.753-.753-1.211-1.211,4.841-4.841,3.28,3.278a2.407,2.407,0,0,0-.606.436c-1.245,1.245-.88,3.627.813,5.319s4.077,2.06,5.322.813a2.426,2.426,0,0,0,.434-.608l3.28,3.282Z" transform="translate(76.474 -67.363)" fill="#00adee"/></svg>