<svg xmlns="http://www.w3.org/2000/svg" width="45.726" height="45.725" viewBox="0 0 45.726 45.725"><path d="M58.415,174.23h0a22.863,22.863,0,0,1-22.863-22.862h0a22.863,22.863,0,0,1,22.863-22.863h0a22.863,22.863,0,0,1,22.863,22.863h0A22.863,22.863,0,0,1,58.415,174.23Z" transform="translate(-35.552 -128.505)" fill="#dedede"/><path d="M44.444,156.849a14.215,14.215,0,0,0,21.868-12.623,10.131,10.131,0,0,0,2.493-2.588,9.968,9.968,0,0,1-2.87.787,5,5,0,0,0,2.2-2.766,10.028,10.028,0,0,1-3.173,1.213,5,5,0,0,0-8.518,4.559,14.185,14.185,0,0,1-10.3-5.222,5,5,0,0,0,1.546,6.674,4.982,4.982,0,0,1-2.265-.626,5.005,5.005,0,0,0,4.009,4.965,5,5,0,0,1-2.256.084,5,5,0,0,0,4.668,3.472A10.05,10.05,0,0,1,44.444,156.849Z" transform="translate(-33.762 -126.332)" fill="#fff"/></svg>