<svg xmlns="http://www.w3.org/2000/svg" width="45.725" height="45.725" viewBox="0 0 45.725 45.725"><rect width="45.725" height="45.725" rx="19.03" transform="translate(0 0)" fill="#dedede"/><g transform="translate(4.565 9.971)"><path d="M130.577,302.606a4.6,4.6,0,0,0-3.235-3.256c-2.854-.77-14.3-.77-14.3-.77s-11.444,0-14.3.77a4.6,4.6,0,0,0-3.236,3.256c-.764,2.872-.764,8.866-.764,8.866s0,5.992.764,8.865a4.6,4.6,0,0,0,3.236,3.257c2.853.769,14.3.769,14.3.769s11.443,0,14.3-.769a4.6,4.6,0,0,0,3.235-3.257c.764-2.872.764-8.865.764-8.865S131.342,305.478,130.577,302.606Z" transform="translate(-94.747 -298.58)" fill="#fff"/><path d="M106.862,315.664V304.782l9.565,5.441Z" transform="translate(-92.308 -297.331)" fill="#dedede"/></g></svg>