<svg xmlns="http://www.w3.org/2000/svg" width="45.725" height="45.725" viewBox="0 0 45.725 45.725"><rect width="45.725" height="45.725" rx="19.03" transform="translate(0 0)" fill="red"/><g transform="translate(8.341 12.631)"><path d="M123.183,301.775a3.65,3.65,0,0,0-2.568-2.584c-2.265-.611-11.347-.611-11.347-.611s-9.082,0-11.347.611a3.649,3.649,0,0,0-2.569,2.584,41.121,41.121,0,0,0,0,14.072,3.652,3.652,0,0,0,2.569,2.585c2.264.61,11.347.61,11.347.61s9.082,0,11.347-.61a3.653,3.653,0,0,0,2.568-2.585,41.122,41.122,0,0,0,0-14.072Z" transform="translate(-94.747 -298.58)" fill="#fff"/><path d="M106.862,313.418v-8.637l7.591,4.318Z" transform="translate(-95.311 -298.869)" fill="red"/></g></svg>